<svg width="200" height="160" viewBox="0 0 200 160" fill="none" xmlns="http://www.w3.org/2000/svg">
<path fill-rule="evenodd" clip-rule="evenodd" d="M171 40C174.093 40 176.6 42.5072 176.6 45.6C176.6 48.6928 174.093 51.2 171 51.2H139C142.093 51.2 144.6 53.7072 144.6 56.8C144.6 59.8928 142.093 62.4 139 62.4H156.6C159.693 62.4 162.2 64.9072 162.2 68C162.2 71.0928 159.693 73.6 156.6 73.6H148.461C144.561 73.6 141.4 76.1072 141.4 79.2C141.4 81.2619 143 83.1285 146.2 84.8C149.293 84.8 151.8 87.3072 151.8 90.4C151.8 93.4928 149.293 96 146.2 96H79.8C76.7072 96 74.2 93.4928 74.2 90.4C74.2 87.3072 76.7072 84.8 79.8 84.8H48.6C45.5072 84.8 43 82.2928 43 79.2C43 76.1072 45.5072 73.6 48.6 73.6H80.6C83.6928 73.6 86.2 71.0928 86.2 68C86.2 64.9072 83.6928 62.4 80.6 62.4H60.6C57.5072 62.4 55 59.8928 55 56.8C55 53.7072 57.5072 51.2 60.6 51.2H92.6C89.5072 51.2 87 48.6928 87 45.6C87 42.5072 89.5072 40 92.6 40H171ZM171 62.4C174.093 62.4 176.6 64.9072 176.6 68C176.6 71.0928 174.093 73.6 171 73.6C167.907 73.6 165.4 71.0928 165.4 68C165.4 64.9072 167.907 62.4 171 62.4Z" fill="#77C73E" fill-opacity="0.25"/>
<path d="M117.333 46.6667H90.6667C79 46.6667 74 53.3333 74 63.3333V96.6667C74 106.667 79 113.333 90.6667 113.333H117.333C129 113.333 134 106.667 134 96.6667V63.3333C134 53.3333 129 46.6667 117.333 46.6667ZM90.6667 80.8333H104C105.367 80.8333 106.5 81.9667 106.5 83.3333C106.5 84.7 105.367 85.8333 104 85.8333H90.6667C89.3 85.8333 88.1667 84.7 88.1667 83.3333C88.1667 81.9667 89.3 80.8333 90.6667 80.8333ZM117.333 99.1667H90.6667C89.3 99.1667 88.1667 98.0333 88.1667 96.6667C88.1667 95.3 89.3 94.1667 90.6667 94.1667H117.333C118.7 94.1667 119.833 95.3 119.833 96.6667C119.833 98.0333 118.7 99.1667 117.333 99.1667ZM125.667 70.8333H119C113.933 70.8333 109.833 66.7333 109.833 61.6667V55C109.833 53.6333 110.967 52.5 112.333 52.5C113.7 52.5 114.833 53.6333 114.833 55V61.6667C114.833 63.9667 116.7 65.8333 119 65.8333H125.667C127.033 65.8333 128.167 66.9667 128.167 68.3333C128.167 69.7 127.033 70.8333 125.667 70.8333Z" fill="#005E39"/>
</svg>
